<?xml version="1.0" encoding="UTF-8" standalone="no"?>
<svg
   xmlns:dc="http://purl.org/dc/elements/1.1/"
   xmlns:cc="http://creativecommons.org/ns#"
   xmlns:rdf="http://www.w3.org/1999/02/22-rdf-syntax-ns#"
   xmlns:svg="http://www.w3.org/2000/svg"
   xmlns="http://www.w3.org/2000/svg"
   xmlns:sodipodi="http://sodipodi.sourceforge.net/DTD/sodipodi-0.dtd"
   xmlns:inkscape="http://www.inkscape.org/namespaces/inkscape"
   version="1.1"
   id="svg2"
   xml:space="preserve"
   width="333.33334"
   height="333.33334"
   viewBox="0 0 333.33334 333.33334"
   sodipodi:docname="shutterstock_1197360829.eps"><metadata
     id="metadata8"><rdf:RDF><cc:Work
         rdf:about=""><dc:format>image/svg+xml</dc:format><dc:type
           rdf:resource="http://purl.org/dc/dcmitype/StillImage" /></cc:Work></rdf:RDF></metadata><defs
     id="defs6" /><sodipodi:namedview
     pagecolor="#ffffff"
     bordercolor="#666666"
     borderopacity="1"
     objecttolerance="10"
     gridtolerance="10"
     guidetolerance="10"
     inkscape:pageopacity="0"
     inkscape:pageshadow="2"
     inkscape:window-width="640"
     inkscape:window-height="480"
     id="namedview4" /><g
     id="g10"
     inkscape:groupmode="layer"
     inkscape:label="ink_ext_XXXXXX"
     transform="matrix(1.3333333,0,0,-1.3333333,0,333.33333)"><g
       id="g12"
       transform="scale(0.1)"><path
         d="m 881.641,1265.74 c -0.848,-6.52 -1.133,-13.32 -1.133,-19.84 0,-29.76 8.222,-58.11 22.961,-84.19 4.246,-7.37 9.07,-14.74 14.168,-21.83 13.613,-16.44 31.179,-34.01 53.574,-52.72 156.759,-72.57 244.359,-19.56 325.419,45.35 l 0.57,0.29 1.13,1.13 1.42,0.85 c 7.37,5.95 14.74,11.91 22.11,18.14 43.65,35.72 87.3,71.72 140.6,92.7 l 2.54,1.13 h 0.29 l 1.98,0.85 0.86,0.29 2.26,0.85 c -34.59,32.03 -64.06,21.82 -110.27,5.95 -28.05,-9.64 -61.22,-20.98 -103.18,-28.35 l -0.56,-0.28 -1.7,-0.29 h -0.57 l -1.41,-0.28 h -0.57 l -1.7,-0.28 -0.29,-0.29 -1.7,-0.28 h -0.57 l -1.41,-0.28 h -0.57 l -1.7,-0.29 h -0.57 l -1.41,-0.28 -0.57,-0.28 -1.7,-0.29 h -0.56 l -1.43,-0.28 h -0.57 l -1.7,-0.28 -0.56,-0.29 -1.99,-0.28 -1.69,-0.28 h -0.57 l -1.42,-0.29 h -0.56 l -1.7,-0.28 h -0.57 l -1.42,-0.28 -0.57,-0.29 -2.27,-0.28 -1.7,-0.28 h -0.28 l -1.71,-0.29 h -0.56 l -1.7,-0.28 -0.28,-0.29 h -1.71 l -0.56,-0.28 -1.7,-0.28 h -0.28 l -1.7,-0.29 h -0.57 l -1.7,-0.28 h -0.57 l -1.7,-0.28 h -0.29 l -2.26,-0.29 -1.7,-0.28 -0.29,-0.28 h -1.7 l -0.56,-0.29 -1.71,-0.28 h -0.57 l -1.97,-0.28 -1.71,-0.29 h -0.57 -0.56 l -1.7,-0.28 -1.7,-0.29 h -0.28 l -1.7,-0.28 h -0.57 l -1.7,-0.28 h -0.29 l -1.98,-0.29 h -0.29 l -1.7,-0.28 h -0.56 l -1.7,-0.28 h -0.29 l -1.98,-0.29 h -0.29 l -1.7,-0.28 h -0.57 l -1.7,-0.28 h -0.28 l -1.98,-0.29 h -0.28 l -1.7,-0.28 h -0.58 -1.7 l -0.27,-0.28 h -1.99 -0.28 l -1.71,-0.29 h -0.56 l -1.7,-0.28 h -0.29 l -1.99,-0.28 h -0.27 l -1.7,-0.28 h -0.57 -1.7 l -0.29,-0.29 h -1.98 -0.28 l -1.7,-0.28 h -0.57 l -1.7,-0.28 h -0.29 l -4.25,-0.29 h -0.28 l -1.7,-0.28 -2.27,-0.29 h -0.28 -1.98 -0.3 l -1.7,-0.28 h -0.27 -1.99 l -0.29,-0.29 h -1.98 c -1.98,-0.28 -4.26,-0.28 -6.52,-0.56 h -0.27 -1.71 -0.29 l -1.98,-0.28 h -0.28 -1.98 -0.29 l -1.99,-0.29 v 0 h -1.97 -0.3 -1.98 l -2.26,-0.28 v 0 h -2.27 v 0 h -1.98 -0.29 l -1.98,-0.28 v 0 h -2.27 v 0 h -2.27 v 0 h -1.98 v 0 l -2.27,-0.29 v 0 0 h -4.25 v 0 h -2.27 v 0 h -1.98 -0.29 -1.99 v 0 h -1.97 -0.29 -1.99 -0.28 -1.98 v 0 h -1.98 -0.3 -1.97 v 0 h -1.99 -0.28 -1.99 l -1.98,0.29 h -0.28 -2 -0.27 -1.7 -0.29 -1.97 -0.3 l -1.7,0.28 h -0.28 -1.7 -0.56 -1.71 -0.28 l -1.7,0.28 h -0.56 -1.7 -0.29 l -1.7,0.29 h -0.57 -1.42 -0.56 l -1.71,0.28 h -0.28 -1.69 -0.57 l -1.43,0.28 h -0.56 -1.7 l -0.57,0.28 h -1.41 -0.57 l -1.42,0.29 h -0.56 l -1.7,0.28 h -0.57 -1.42 l -0.57,0.29 h -1.42 -0.56 l -1.42,0.28 h -0.85 l -1.13,0.29 h -0.85 l -1.43,0.28 H 1016 l -1.41,0.28 h -0.57 l -1.42,0.29 -1.7,0.28 h -0.28 -0.85 l -1.14,0.28 h -0.85 l -1.14,0.28 h -0.84 l -1.13,0.29 -1.99,0.28 h -0.29 l -1.7,0.28 v 0 l -0.846,0.29 -1.414,0.28 h -0.852 l -1.133,0.28 h -0.859 l -0.84,0.29 -1.133,0.28 -0.859,0.28 h -1.133 l -0.851,0.29 -1.129,0.28 h -0.852 l -1.133,0.28 -0.847,0.29 h -0.286 l -1.699,0.28 v 0 l -2.558,0.57 -0.848,0.28 c -25.227,5.96 -48.762,15.03 -70.012,27.5 -10.488,6.23 -20.41,13.32 -29.765,21.54 z m 147.109,-12.47 h 1.14 l 0.29,-0.28 h 1.41 l 1.98,-0.28 h 0.57 1.13 0.3 l 1.13,-0.29 h 0.57 0.56 l 1.41,-0.28 h 1.42 0.57 0.57 l 1.13,-0.28 h 0.28 1.42 0.28 0.85 l 1.13,-0.29 h 0.3 1.4 0.3 0.84 0.86 0.56 l 1.42,-0.29 v 0 h 1.13 0.85 0.57 1.42 v 0 l 1.41,-0.28 h 0.57 1.69 0.3 1.7 1.13 0.85 0.28 1.42 0.28 c 1.7,-0.28 3.4,-0.28 5.11,-0.28 h 0.85 0.57 1.41 v 0 h 1.42 0.56 2 0.27 1.13 0.57 1.99 0.28 1.7 1.14 0.85 l 0.56,0.28 h 1.43 v 0 h 1.13 0.84 1.99 v 0 h 1.42 0.57 0.84 1.14 0.28 l 1.7,0.28 h 1.14 0.84 0.57 1.42 v 0 h 1.14 l 0.85,0.29 h 0.56 1.42 v 0 h 1.42 0.56 0.85 l 1.43,0.29 v 0 h 1.4 0.57 0.86 1.13 l 0.29,0.28 h 1.41 0.28 0.29 0.56 0.85 0.29 0.28 l 0.57,0.28 h 0.57 0.57 0.27 0.57 0.57 0.56 0.29 l 0.57,0.29 h 0.57 0.56 0.29 0.28 0.85 0.57 0.28 l 0.28,0.28 h 0.57 0.85 0.57 v 0 h 0.56 0.57 l 0.86,0.28 v 0 h 0.56 0.57 0.84 v 0 h 0.57 l 0.56,0.28 h 0.57 0.58 0.28 0.57 0.56 l 0.57,0.29 v 0 h 0.85 0.56 0.57 v 0 h 0.57 l 0.85,0.28 h 0.56 0.3 0.27 0.86 l 0.56,0.28 h 0.28 0.29 0.57 0.84 0.29 0.28 l 0.57,0.29 h 0.57 0.85 v 0 h 0.56 l 0.57,0.28 h 0.85 v 0 h 0.56 0.57 l 0.57,0.28 h 0.28 0.57 0.56 0.57 0.57 v 0.29 h 0.86 0.56 l 1.42,0.28 h 0.56 l -1.98,0.57 c -51.31,19.84 -87.3,33.45 -126.15,-3.12 z m 574.59,63.21 c -17.3,37.42 -48.2,71.15 -88.73,98.36 -40.53,27.5 -90.43,48.48 -146.27,61.23 -24.38,-33.44 -71.43,-55.84 -125.85,-55.84 -52.72,0 -98.64,21.26 -123.59,52.72 -50.74,-12.75 -96.1,-32.59 -133.509,-58.11 -41.387,-28.06 -72.852,-62.64 -89.864,-100.91 11.055,-12.75 24.102,-23.24 38.274,-31.75 13.601,-8.22 28.621,-14.46 44.5,-18.99 64.349,83.34 114.809,64.07 192.189,34.58 24.37,-9.35 51.59,-19.56 82.77,-27.49 36.86,6.8 66.9,17.29 92.4,26.08 71.16,24.37 113.11,38.83 171.78,-33.45 16.45,4.81 31.76,11.05 45.92,19.56 15.04,8.78 28.36,20.12 39.98,34.01 z m 4.8,-130.11 c 7.09,17.86 10.79,36.57 11.35,55.85 -0.27,8.5 -1.13,16.72 -2.83,24.94 -9.65,-8.5 -19.84,-15.88 -30.9,-22.39 -19.84,-11.91 -41.38,-20.41 -64.63,-26.37 -2.26,-1.41 -4.53,-2.55 -7.09,-2.83 -3.12,-0.85 -5.95,-1.42 -8.79,-2.27 h -0.56 c -9.63,-2.55 -18.71,-5.67 -27.78,-9.35 l -2.55,-1.14 h -0.28 -0.29 c -3.4,-1.7 -7.09,-3.11 -10.49,-4.82 l -2.54,-1.13 -0.29,-0.28 -2.27,-1.14 h -0.29 l -2.54,-1.42 v 0 c -2.83,-1.41 -5.39,-2.83 -7.95,-4.24 l -2.54,-1.42 v 0 l -2.56,-1.42 v 0 l -2.53,-1.42 v 0 l -2.56,-1.7 -2.56,-1.42 v 0 l -2.54,-1.41 v -0.29 l -2.56,-1.41 v 0 l -2.56,-1.71 v 0 l -2.54,-1.7 -2.26,-1.41 -0.3,-0.29 -2.26,-1.42 -0.27,-0.28 -2.29,-1.42 h -0.27 l -2.27,-1.69 v 0 l -2.56,-1.7 v -0.29 l -2.26,-1.42 -0.28,-0.28 -2.28,-1.7 v 0 l -2.54,-1.7 v 0 l -2.27,-1.7 h -0.29 l -2.27,-1.7 v -0.29 l -2.26,-1.7 h -0.27 l -4.56,-3.68 h -0.27 c -3.12,-2.56 -6.23,-4.82 -9.35,-7.38 h -0.3 c -11.05,-8.78 -22.11,-17.85 -33.15,-26.92 -19.28,-15.88 -38.55,-31.47 -58.39,-46.2 24.66,-11.34 51.31,-19 80.78,-20.7 42.79,-2.55 92.7,7.09 153.36,34.86 44.22,37.14 69.73,69.74 82.75,99.5 z m -583.63,-166.39 c 41.95,-67.179 60.94,-144 55.55,-220.25 -5.38,-75.402 -34.57,-150.242 -89.29,-215.441 137.48,43.941 257.1,96.672 348.1,165.27 97.79,73.691 162.13,166.101 178.57,286.291 -56.4,-22.68 -104.88,-30.33 -147.97,-27.78 -45.62,2.55 -84.74,17.01 -120.47,36.85 -59.8,-34.3 -129.53,-52.158 -224.49,-24.94 v 0"
         style="fill:#221f20;fill-opacity:1;fill-rule:evenodd;stroke:none"
         id="path14" /><path
         d="m 1209.33,1734.59 c -30.9,27.79 -69.46,41.39 -110.83,50.18 -27.5,-34.87 -34.03,-126.43 -4.26,-189.64 11.62,36.85 85.89,129.26 115.09,139.46 z m -94.4,70.59 c 122.45,-15.03 250.87,-92.41 284.31,-216.57 111.68,251.43 -175.18,315.78 -284.31,216.57 v 0"
         style="fill:#221f20;fill-opacity:1;fill-rule:evenodd;stroke:none"
         id="path16" /><path
         d="m 1204.22,1865.84 1.13,60.94 c -82.48,9.64 -75.4,246.62 91.56,200.7 83.62,-23.25 174.05,-89.01 216,-61.23 -25.23,-94.68 -77.68,-79.09 -130.96,-75.69 -83.62,5.67 -42.23,-57.83 -111.97,-64.91 l 3.69,-58.11 c -23.24,1.98 -46.48,1.42 -69.45,-1.7 v 0"
         style="fill:#221f20;fill-opacity:1;fill-rule:evenodd;stroke:none"
         id="path18" /><path
         d="m 1249.57,1586.63 c -109.98,60.66 -134.92,-87.03 -192.46,-18.15 12.75,-66.89 139.18,-55.55 192.46,0.57 53.3,-56.12 180,-67.46 192.48,-0.57 -57.54,-68.88 -82.5,78.81 -192.48,18.15 v 0"
         style="fill:#221f20;fill-opacity:1;fill-rule:evenodd;stroke:none"
         id="path20" /></g></g></svg>
