<?xml version="1.0" encoding="UTF-8"?><svg xmlns="http://www.w3.org/2000/svg" viewBox="0 0 63.22 125"><defs><style>.h{fill:#bbb;}</style></defs><g id="a"/><g id="b"><g id="c"><g id="d" transform="translate(-31.812046,-1.3512366)"><g id="e" transform="translate(0.15201858,-0.45605694)"><path id="f" class="h" d="M15.61,121.23c-3.52-2.05-7.79-5.46-9.5-7.57-2.78-3.44-3.11-4.54-3.11-10.5s.39-7.35,4.98-15.47l4.98-8.82,6.74,20.18c3.71,11.1,7.43,21.24,8.27,22.53,2.13,3.26,2.03,3.42-2.21,3.4-2.49-.01-5.89-1.27-10.14-3.75Zm17.82,2.36c.64-.78,4.44-11.2,8.43-23.18l7.26-21.77,4.59,7.96c7.23,12.53,7.9,17.1,3.71,25.46-2.78,5.55-15.06,12.93-21.51,12.93-3.04,0-3.46-.24-2.49-1.41ZM6.49,56.75L0,37.5l.02-14C.04,6.41,.94,0,3.32,0c1.17,0,5.58,6.9,14.19,22.2,6.87,12.21,12.64,22.82,12.83,23.57,.19,.76-.35,2.13-1.18,3.05-.83,.92-2.03,2.8-2.65,4.18-.62,1.37-2.43,4.75-4.03,7.5-1.59,2.75-3.58,6.35-4.41,8-.83,1.65-2.32,4.01-3.3,5.25-1.76,2.23-1.85,2.04-8.28-17h0Zm34,4.56c-4.58-8.12-8.31-15.22-8.29-15.79,.02-.57,5.66-10.93,12.51-23.03,15.23-26.87,15.67-27.15,17.57-11,1.95,16.57,1.16,22.5-5.88,44.16-3.37,10.36-6.45,19.19-6.86,19.62-.41,.43-4.49-5.85-9.07-13.97Z"/><path id="g" d="M29.27,122.35c-.95-.96-4.92-11.31-8.82-23l-7.09-21.26,8.69-15.53c4.78-8.54,9.03-15.32,9.46-15.05,1.23,.76,17,29.22,17,30.68,0,3.22-13.43,41.21-15.36,43.43-2.04,2.36-2.23,2.39-3.88,.74Z"/></g></g></g></g></svg>