<?xml version="1.0" encoding="utf-8"?>
<!-- Generator: Adobe Illustrator 26.1.0, SVG Export Plug-In . SVG Version: 6.00 Build 0)  -->
<svg version="1.1"
	 id="svg2" inkscape:version="1.0.1 (3bc2e813f5, 2020-09-07)" xmlns:cc="http://creativecommons.org/ns#" xmlns:dc="http://purl.org/dc/elements/1.1/" xmlns:inkscape="http://www.inkscape.org/namespaces/inkscape" xmlns:rdf="http://www.w3.org/1999/02/22-rdf-syntax-ns#" xmlns:sodipodi="http://sodipodi.sourceforge.net/DTD/sodipodi-0.dtd" xmlns:svg="http://www.w3.org/2000/svg"
	 xmlns="http://www.w3.org/2000/svg" xmlns:xlink="http://www.w3.org/1999/xlink" x="0px" y="0px" viewBox="0 0 63.2 125"
	 style="enable-background:new 0 0 63.2 125;" xml:space="preserve">
<style type="text/css">
	.st0{fill:#CFCFCF;}
	.st1{fill:#BBBBBB;}
</style>
<sodipodi:namedview  bordercolor="#666666" borderopacity="1" fit-margin-bottom="0" fit-margin-left="0" fit-margin-right="0" fit-margin-top="0" gridtolerance="10" guidetolerance="10" id="namedview4" inkscape:current-layer="g14" inkscape:cx="-41.316603" inkscape:cy="65.596165" inkscape:pageopacity="0" inkscape:pageshadow="2" inkscape:window-height="1017" inkscape:window-maximized="1" inkscape:window-width="1920" inkscape:window-x="-8" inkscape:window-y="-8" inkscape:zoom="4.6514368" objecttolerance="10" pagecolor="#ffffff" showgrid="false">
	</sodipodi:namedview>
<g id="g10" transform="translate(-31.812046,-1.3512366)" inkscape:groupmode="layer" inkscape:label="Image">
	<g id="g14" transform="translate(0.15201858,-0.45605694)">
		<path id="path24" sodipodi:nodetypes="ccc" class="st0" d="M94.4,17.3C94,13.6,94.3,22.2,94.4,17.3z"/>
		<path id="path20" class="st1" d="M47.3,123c-3.5-2.1-7.8-5.5-9.5-7.6c-2.8-3.4-3.1-4.5-3.1-10.5c0-6.1,0.4-7.3,5-15.5l5-8.8
			l6.7,20.2c3.7,11.1,7.4,21.2,8.3,22.5c2.1,3.3,2,3.4-2.2,3.4C54.9,126.8,51.5,125.5,47.3,123z M65.1,125.4
			c0.6-0.8,4.4-11.2,8.4-23.2l7.3-21.8l4.6,8c7.2,12.5,7.9,17.1,3.7,25.5c-2.8,5.5-15.1,12.9-21.5,12.9
			C64.5,126.8,64.1,126.6,65.1,125.4z M38.2,58.6l-6.5-19.3l0-14c0-17.1,0.9-23.5,3.3-23.5c1.2,0,5.6,6.9,14.2,22.2
			C56,36.2,61.8,46.8,62,47.6c0.2,0.8-0.3,2.1-1.2,3.1c-0.8,0.9-2,2.8-2.6,4.2c-0.6,1.4-2.4,4.7-4,7.5c-1.6,2.8-3.6,6.3-4.4,8
			c-0.8,1.7-2.3,4-3.3,5.3C44.7,77.8,44.6,77.6,38.2,58.6L38.2,58.6z M72.2,63.1c-4.6-8.1-8.3-15.2-8.3-15.8c0-0.6,5.7-10.9,12.5-23
			C91.6-2.6,92.1-2.8,94,13.3c2,16.6,1.2,22.5-5.9,44.2c-3.4,10.4-6.5,19.2-6.9,19.6C80.8,77.5,76.7,71.2,72.2,63.1z"/>
		<path id="path16" d="M60.9,124.2c-1-1-4.9-11.3-8.8-23L45,79.9l8.7-15.5c4.8-8.5,9-15.3,9.5-15.1c1.2,0.8,17,29.2,17,30.7
			c0,3.2-13.4,41.2-15.4,43.4C62.8,125.8,62.6,125.8,60.9,124.2z"/>
	</g>
</g>
</svg>
